# Blender v2.76 (sub 0) OBJ File: 'VehicleAppScene.blend'
# www.blender.org
o glass_2
v -1.017374 2.318092 -1.449527
v -1.044351 2.250232 -1.442066
v -1.045401 2.250232 -1.442066
v -1.018424 2.318092 -1.449527
v -1.071483 2.181076 -1.434445
v -1.072533 2.181076 -1.434445
v -1.046212 2.250236 -1.442037
v -1.019235 2.318096 -1.449497
v -1.073345 2.181078 -1.434417
v -1.126830 2.033686 -1.418079
v -1.127880 2.033686 -1.418079
v -1.099974 2.109326 -1.426503
v -1.098924 2.109326 -1.426503
v -1.128693 2.033687 -1.418052
v -1.100786 2.109328 -1.426475
v -1.129700 2.033700 -1.417800
v -1.101791 2.109348 -1.426220
v -1.101384 2.109335 -1.426390
v -1.129291 2.033692 -1.417968
v -1.074346 2.181105 -1.434157
v -1.073941 2.181087 -1.434330
v -1.020232 2.318132 -1.449229
v -1.019830 2.318108 -1.449408
v -1.046808 2.250246 -1.441949
v -1.047212 2.250267 -1.441774
v -1.122096 2.044055 -0.918680
v -1.090199 2.128645 -0.920336
v -1.093514 2.127681 -1.089715
v -1.124500 2.044769 -1.086062
v -1.058987 2.208189 -0.921506
v -1.063212 2.205605 -1.092769
v -1.096378 2.123902 -1.216069
v -1.126449 2.042975 -1.210776
v -1.066951 2.200069 -1.220740
v -0.997702 2.358863 -0.923034
v -1.003749 2.353142 -1.097875
v -1.033366 2.280205 -1.095422
v -1.028231 2.284367 -0.922351
v -1.009169 2.344469 -1.229048
v -1.037953 2.273062 -1.224998
v -1.017150 2.326605 -1.385459
v -1.044681 2.257644 -1.379042
v -1.041791 2.264891 -1.317423
v -1.013718 2.334928 -1.322820
v -1.072387 2.187291 -1.372446
v -1.070058 2.193368 -1.311829
v -1.129022 2.036836 -1.358008
v -1.127953 2.039916 -1.299275
v -1.098714 2.118872 -1.305845
v -1.100443 2.114153 -1.365494
v -1.119228 2.039589 -0.702181
v -1.086514 2.125233 -0.701482
v -1.116715 2.031139 -0.459295
v -1.083533 2.116819 -0.456079
v -1.054422 2.206030 -0.700541
v -1.050895 2.197973 -0.452951
v -1.116034 2.001356 0.014710
v -1.083986 2.082481 0.022665
v -1.082332 2.102777 -0.207055
v -1.115376 2.018472 -0.212754
v -1.052460 2.159533 0.029806
v -1.049782 2.182860 -0.201810
v -0.990282 2.306849 0.042735
v -0.985508 2.335989 -0.192075
v -1.017562 2.260128 -0.196867
v -1.021284 2.233870 0.036406
v -0.986524 2.352738 -0.446837
v -1.018619 2.276109 -0.449880
v -1.022745 2.283595 -0.699439
v -0.991275 2.359545 -0.698256
v -1.119506 1.979558 0.200366
v -1.089570 2.055307 0.210153
v -1.125466 1.952518 0.357442
v -1.098511 2.021147 0.368327
v -1.060307 2.126836 0.218822
v -1.072423 2.085326 0.377858
v -1.143544 1.880470 0.638767
v -1.124168 1.931448 0.648408
v -1.110235 1.979896 0.510106
v -1.133588 1.919675 0.499166
v -1.105858 1.978092 0.656478
v -1.087906 2.035559 0.519536
v -1.071015 2.064155 0.670000
v -1.044956 2.139286 0.535879
v -1.066260 2.088182 0.527959
v -1.088259 2.021846 0.663501
v -1.021691 2.206266 0.394662
v -1.046912 2.146538 0.386486
v -1.031494 2.195553 0.226746
v -1.002904 2.262864 0.234297
v -1.155006 1.834340 0.789473
v -1.139736 1.875697 0.796150
v -1.167598 1.783019 0.948508
v -1.156530 1.814469 0.950973
v -1.125378 1.913483 0.801304
v -1.145872 1.844123 0.950979
v -1.194666 1.671721 1.280458
v -1.192163 1.682883 1.272420
v -1.174142 1.749589 1.110516
v -1.180944 1.728235 1.113095
v -1.187811 1.699505 1.254852
v -1.166747 1.772404 1.102463
v -1.167405 1.767696 1.158347
v -1.148272 1.828548 1.063016
v -1.157878 1.799425 1.085073
v -1.180071 1.726228 1.219560
v -1.124567 1.902460 0.943336
v -1.135219 1.873389 0.947923
v -1.111629 1.948889 0.805444
v -1.098183 1.983104 0.809075
v -1.120674 2.033686 -1.418079
v -1.149199 1.952858 -1.409014
v -1.150901 1.952858 -1.409014
v -1.122376 2.033686 -1.418079
v -1.176454 1.873679 -1.400093
v -1.179024 1.870910 -1.399780
v -1.152538 1.952858 -1.409014
v -1.124013 2.033686 -1.418079
v -1.181311 1.868833 -1.399545
v -1.219597 1.747603 -1.385837
v -1.231706 1.714375 -1.382076
v -1.205721 1.791906 -1.390851
v -1.200550 1.802982 -1.392105
v -1.238547 1.697761 -1.380195
v -1.209960 1.783599 -1.389911
v -1.243099 1.692223 -1.379569
v -1.213644 1.780830 -1.389598
v -1.212334 1.780830 -1.389598
v -1.241788 1.692223 -1.379569
v -1.184345 1.868141 -1.399466
v -1.183034 1.868141 -1.399466
v -1.125520 2.033686 -1.418079
v -1.154045 1.952858 -1.409014
v -1.155356 1.952858 -1.409014
v -1.256526 1.655226 -0.907190
v -1.222348 1.756639 -0.910468
v -1.222020 1.762787 -1.071100
v -1.255287 1.663252 -1.065446
v -1.188399 1.856370 -0.913584
v -1.188981 1.860660 -1.076554
v -1.220949 1.768456 -1.190761
v -1.253165 1.671660 -1.183400
v -1.188949 1.863665 -1.197916
v -1.156398 1.955208 -1.081608
v -1.154905 1.952736 -0.916375
v -1.157377 1.955700 -1.204656
v -1.158301 1.953948 -1.349808
v -1.157969 1.955013 -1.291922
v -1.188105 1.866882 -1.341074
v -1.188568 1.865650 -1.283984
v -1.248586 1.685786 -1.322716
v -1.250738 1.679492 -1.267130
v -1.219556 1.773315 -1.275655
v -1.218258 1.777030 -1.331984
v -1.256301 1.648546 -0.702553
v -1.221514 1.750346 -0.702662
v -1.254874 1.643165 -0.473022
v -1.219881 1.743929 -0.469518
v -1.186935 1.850530 -0.702690
v -1.185070 1.843186 -0.466043
v -1.249454 1.636123 -0.025235
v -1.215663 1.730825 -0.014572
v -1.217810 1.737414 -0.232876
v -1.252504 1.639038 -0.240087
v -1.182047 1.824170 -0.004179
v -1.183281 1.834384 -0.225815
v -1.149081 1.928539 -0.219058
v -1.148779 1.914800 0.005672
v -1.150620 1.939425 -0.462626
v -1.152771 1.947483 -0.702556
v -1.245984 1.634373 0.150044
v -1.213803 1.724185 0.163556
v -1.241959 1.633499 0.300356
v -1.212113 1.716962 0.315756
v -1.181847 1.812591 0.176695
v -1.182557 1.798942 0.330705
v -1.231706 1.633207 0.584497
v -1.208777 1.698635 0.599373
v -1.210476 1.708623 0.456279
v -1.237244 1.633207 0.440305
v -1.186203 1.762618 0.613726
v -1.184050 1.782519 0.471749
v -1.158307 1.853376 0.486212
v -1.164340 1.823711 0.627032
v -1.153578 1.877955 0.344750
v -1.150340 1.898184 0.189089
v -1.225208 1.633207 0.747535
v -1.206897 1.686466 0.759289
v -1.218380 1.633777 0.912458
v -1.205077 1.672946 0.925694
v -1.188891 1.738535 0.770534
v -1.192027 1.711386 0.936935
v -1.206239 1.638905 1.180105
v -1.202182 1.644603 1.248905
v -1.203555 1.658905 1.088260
v -1.211848 1.635486 1.062302
v -1.199211 1.652216 1.280618
v -1.195528 1.682288 1.107688
v -1.188032 1.705600 1.114060
v -1.196860 1.661377 1.287164
v -1.179482 1.748367 0.944184
v -1.171492 1.788223 0.780765
v -1.156405 1.952858 -1.409014
v -1.185395 1.868141 -1.399466
v -1.157218 1.952859 -1.408986
v -1.186208 1.868141 -1.399439
v -1.244148 1.692223 -1.379569
v -1.214694 1.780830 -1.389598
v -1.244962 1.692220 -1.379542
v -1.215508 1.780829 -1.389571
v -1.245983 1.692193 -1.379305
v -1.216525 1.780813 -1.389330
v -1.216110 1.780823 -1.389491
v -1.245566 1.692211 -1.379463
v -1.187222 1.868135 -1.399195
v -1.186809 1.868139 -1.399358
v -1.157818 1.952860 -1.408904
v -1.158228 1.952863 -1.408739
v -1.029142 2.275680 -1.444864
v -1.045364 2.233267 -1.440201
v -1.043482 2.241750 -1.441134
v -1.020090 2.301127 -1.447662
v -1.067119 2.176835 -1.433979
v -1.067925 2.178955 -1.434212
v -1.042430 2.248112 -1.441833
v -1.016349 2.313851 -1.449060
v -1.068890 2.180546 -1.434387
v -1.094470 2.109326 -1.426503
v -1.092768 2.109326 -1.426503
v -1.096107 2.109326 -1.426503
v -1.097614 2.109326 -1.426503
v -1.070172 2.181076 -1.434445
v -1.016063 2.318092 -1.449527
v -1.043040 2.250232 -1.442066
v -1.047445 2.250301 -1.441481
v -1.020463 2.318171 -1.448932
v -1.074582 2.181134 -1.433869
v -1.047264 2.251065 -1.434985
v -1.020224 2.319049 -1.442328
v -1.074460 2.181774 -1.427480
v -1.129942 2.033715 -1.417521
v -1.102029 2.109370 -1.425936
v -1.129952 2.034040 -1.411330
v -1.101971 2.109868 -1.419649
v -1.101485 2.111307 -1.401465
v -1.129667 2.034979 -1.393426
v -1.073791 2.183627 -1.409001
v -1.019219 2.321586 -1.423233
v -1.046424 2.253274 -1.416201
v -1.158474 1.952869 -1.408464
v -1.187471 1.868129 -1.398924
v -1.158562 1.952981 -1.402362
v -1.187643 1.868000 -1.392906
v -1.246240 1.692163 -1.379041
v -1.216778 1.780795 -1.389063
v -1.246591 1.691500 -1.373181
v -1.217038 1.780404 -1.383125
v -1.217475 1.779271 -1.365953
v -1.247288 1.689581 -1.356236
v -1.187825 1.867624 -1.375502
v -1.158502 1.953306 -1.384716
vt 0.000000 0.000000
vt 1.000000 0.000000
vt 1.000000 1.000000
vt 0.000000 1.000000
vn 0.000000 -0.109300 -0.994000
vn 0.000000 -0.109400 -0.994000
vn -0.018100 -0.102300 -0.994600
vn -0.018200 -0.102100 -0.994600
vn 0.000000 -0.109800 -0.994000
vn -0.017800 -0.102900 -0.994500
vn -0.091600 -0.073100 -0.993100
vn -0.092200 -0.072500 -0.993100
vn -0.090000 -0.074700 -0.993100
vn 0.000000 -0.111100 -0.993800
vn -0.017200 -0.104900 -0.994300
vn -0.017500 -0.103800 -0.994400
vn 0.000000 -0.110300 -0.993900
vn -0.086600 -0.079700 -0.993000
vn -0.088200 -0.077100 -0.993100
vn -0.574000 0.116600 -0.810500
vn -0.579300 0.128500 -0.804900
vn -0.265300 -0.007300 -0.964100
vn -0.261100 -0.013600 -0.965200
vn -0.585000 0.138500 -0.799100
vn -0.269700 -0.001800 -0.963000
vn -0.593300 0.148900 -0.791100
vn -0.276400 0.004200 -0.961000
vn -0.273900 0.002400 -0.961700
vn -0.590500 0.145900 -0.793700
vn -0.938000 0.346100 0.017300
vn -0.932900 0.359600 0.018800
vn -0.934000 0.357000 0.013400
vn -0.939000 0.343600 0.012400
vn -0.928700 0.370200 0.020100
vn -0.929900 0.367600 0.014400
vn -0.934800 0.355000 0.007600
vn -0.939700 0.341800 0.007000
vn -0.930800 0.365400 0.008200
vn -0.925000 0.379400 0.021900
vn -0.926200 0.376800 0.016000
vn -0.927100 0.374400 0.015400
vn -0.925900 0.377100 0.021300
vn -0.927200 0.374500 0.009600
vn -0.928100 0.372100 0.009000
vn -0.928600 0.371000 0.000800
vn -0.929500 0.368700 0.000300
vn -0.929000 0.370100 0.003000
vn -0.928100 0.372400 0.003600
vn -0.932000 0.362400 -0.000400
vn -0.931600 0.363600 0.002300
vn -0.940500 0.339900 -0.000600
vn -0.940200 0.340600 0.001800
vn -0.935500 0.353400 0.001900
vn -0.935800 0.352500 -0.000700
vn -0.936700 0.349400 0.020700
vn -0.931600 0.362800 0.022500
vn -0.935300 0.353000 0.022600
vn -0.930200 0.366100 0.024500
vn -0.927400 0.373300 0.024100
vn -0.926100 0.376300 0.026100
vn -0.933500 0.357900 0.024400
vn -0.928700 0.370000 0.026000
vn -0.929100 0.368900 0.025600
vn -0.934100 0.356100 0.023700
vn -0.924600 0.380000 0.027500
vn -0.925100 0.378800 0.027200
vn -0.921100 0.388200 0.028900
vn -0.921500 0.387200 0.028900
vn -0.922400 0.385100 0.028400
vn -0.922000 0.386200 0.028500
vn -0.922500 0.385100 0.028000
vn -0.923400 0.382900 0.027400
vn -0.924600 0.380000 0.025400
vn -0.923700 0.382300 0.026000
vn -0.933600 0.357500 0.025300
vn -0.928700 0.369800 0.026600
vn -0.934500 0.354900 0.027100
vn -0.929800 0.366900 0.028200
vn -0.925000 0.379100 0.027800
vn -0.925900 0.376600 0.029300
vn -0.938500 0.343900 0.031700
vn -0.934300 0.354900 0.032800
vn -0.931900 0.361600 0.030200
vn -0.936200 0.350300 0.029500
vn -0.930800 0.364000 0.033800
vn -0.927900 0.371500 0.031500
vn -0.927600 0.372100 0.033400
vn -0.924500 0.379900 0.031700
vn -0.925600 0.377300 0.031800
vn -0.928400 0.370000 0.033800
vn -0.922500 0.384800 0.029900
vn -0.923300 0.382800 0.029800
vn -0.922300 0.385500 0.028600
vn -0.921600 0.387200 0.028900
vn -0.941500 0.335300 0.032300
vn -0.937900 0.345400 0.033300
vn -0.946200 0.322300 0.029700
vn -0.943200 0.330900 0.029300
vn -0.934800 0.353500 0.033700
vn -0.940300 0.339200 0.029700
vn -0.967100 0.254400 0.006400
vn -0.964800 0.263100 -0.000500
vn -0.956100 0.292700 0.012800
vn -0.958600 0.284300 0.017000
vn -0.957900 0.286900 0.005000
vn -0.951000 0.308900 0.015800
vn -0.949700 0.312800 0.012000
vn -0.945500 0.325200 0.018400
vn -0.946600 0.321800 0.018600
vn -0.951600 0.307100 0.011300
vn -0.937800 0.346100 0.027900
vn -0.938300 0.344700 0.029000
vn -0.932700 0.359100 0.033100
vn -0.932000 0.361100 0.032500
vn 0.000000 -0.111000 -0.993800
vn -0.000200 -0.111600 -0.993800
vn -0.000200 -0.111700 -0.993700
vn -0.000500 -0.111800 -0.993700
vn -0.000600 -0.111900 -0.993700
vn -0.000100 -0.111700 -0.993700
vn -0.000400 -0.112000 -0.993700
vn -0.000100 -0.112400 -0.993700
vn 0.000000 -0.112500 -0.993700
vn -0.000300 -0.112300 -0.993700
vn -0.000800 -0.112000 -0.993700
vn -0.000100 -0.112500 -0.993700
vn -0.000000 -0.112400 -0.993700
vn -0.000000 -0.112100 -0.993700
vn -0.000100 -0.112100 -0.993700
vn -0.000000 -0.111700 -0.993700
vn -0.947300 0.320100 0.011100
vn -0.946800 0.321500 0.011900
vn -0.947700 0.319100 0.008500
vn -0.948200 0.317700 0.007900
vn -0.945300 0.326000 0.013800
vn -0.946200 0.323600 0.009800
vn -0.948200 0.317700 0.004600
vn -0.948600 0.316300 0.004300
vn -0.946700 0.322100 0.005500
vn -0.943400 0.331400 0.011200
vn -0.942500 0.333900 0.015600
vn -0.944000 0.329900 0.006400
vn -0.944500 0.328400 -0.000600
vn -0.944400 0.328900 0.001700
vn -0.947100 0.320900 -0.000700
vn -0.947000 0.321300 0.001300
vn -0.949000 0.315300 -0.001100
vn -0.948900 0.315500 0.000500
vn -0.948400 0.316900 0.000800
vn -0.948500 0.316700 -0.001000
vn -0.946100 0.323500 0.013600
vn -0.945600 0.324900 0.014600
vn -0.944700 0.327400 0.015500
vn -0.944200 0.328900 0.016500
vn -0.944000 0.329400 0.016700
vn -0.942700 0.333300 0.018500
vn -0.942600 0.333300 0.020300
vn -0.942100 0.334700 0.020800
vn -0.942900 0.332500 0.018300
vn -0.943500 0.331000 0.017500
vn -0.940600 0.338900 0.021800
vn -0.941400 0.336800 0.020000
vn -0.938600 0.344400 0.021800
vn -0.937800 0.346400 0.022900
vn -0.939800 0.341100 0.020500
vn -0.941200 0.337300 0.018700
vn -0.942400 0.333500 0.024200
vn -0.942000 0.334800 0.024300
vn -0.943000 0.331600 0.028800
vn -0.942600 0.332800 0.028500
vn -0.940500 0.339000 0.024200
vn -0.941100 0.336900 0.027300
vn -0.945700 0.323100 0.035800
vn -0.945300 0.324400 0.034800
vn -0.943700 0.329200 0.032300
vn -0.944300 0.327500 0.033300
vn -0.944200 0.327700 0.032800
vn -0.942400 0.333200 0.030500
vn -0.940100 0.339500 0.029500
vn -0.941900 0.334300 0.031600
vn -0.938600 0.344100 0.026700
vn -0.937800 0.346300 0.024400
vn -0.947700 0.316900 0.037000
vn -0.947400 0.318200 0.035900
vn -0.950300 0.309300 0.036800
vn -0.950000 0.310200 0.035600
vn -0.946300 0.321600 0.033800
vn -0.949400 0.312300 0.033300
vn -0.956600 0.289300 0.035000
vn -0.957600 0.286200 0.032700
vn -0.954700 0.295800 0.033900
vn -0.954200 0.296900 0.035700
vn -0.961000 0.275100 0.027200
vn -0.956300 0.290900 0.029900
vn -0.958200 0.285000 0.024400
vn -0.965100 0.261100 0.018700
vn -0.948300 0.315900 0.031200
vn -0.944400 0.327100 0.032400
vn -0.016900 -0.105900 -0.994200
vn -0.016500 -0.106600 -0.994200
vn -0.085300 -0.081900 -0.993000
vn -0.083400 -0.083800 -0.993000
vn -0.016100 -0.107200 -0.994100
vn -0.016300 -0.107000 -0.994100
vn -0.081100 -0.085400 -0.993000
vn -0.082200 -0.084800 -0.993000
vn -0.553900 0.090500 -0.827700
vn -0.556700 0.092700 -0.825500
vn -0.248400 -0.026500 -0.968300
vn -0.245700 -0.027900 -0.969000
vn -0.563400 0.098500 -0.820300
vn -0.252600 -0.023600 -0.967300
vn -0.256600 -0.019500 -0.966300
vn -0.569000 0.106200 -0.815400
vn -0.000100 -0.109300 -0.994000
vn -0.000800 -0.109200 -0.994000
vn -0.000400 -0.109300 -0.994000
vn -0.000200 -0.109200 -0.994000
vn -0.000600 -0.109700 -0.994000
vn -0.000700 -0.109500 -0.994000
vn -0.000200 -0.109300 -0.994000
vn -0.000400 -0.109600 -0.994000
vn -0.000200 -0.110300 -0.993900
vn -0.000300 -0.110200 -0.993900
vn -0.000100 -0.110300 -0.993900
vn -0.000100 -0.109700 -0.994000
vn -0.887400 0.313500 -0.337900
vn -0.887500 0.316100 -0.335500
vn -0.887800 0.306200 -0.343800
vn -0.930300 0.366600 -0.009300
vn -0.929500 0.368800 -0.008500
vn -0.932700 0.360400 -0.010300
vn -0.891400 0.282000 -0.354900
vn -0.889300 0.295000 -0.349500
vn -0.940900 0.338400 -0.011000
vn -0.936400 0.350700 -0.010800
vn -0.936000 0.351900 -0.001700
vn -0.940600 0.339500 -0.001600
vn -0.932300 0.361600 -0.001400
vn -0.929000 0.370100 -0.000100
vn -0.929900 0.367900 -0.000600
vn -0.893000 0.270000 -0.360000
vn -0.893400 0.261700 -0.365100
vn -0.944900 0.327200 -0.011200
vn -0.947400 0.319800 -0.011600
vn -0.892400 0.254400 -0.372600
vn -0.892800 0.256300 -0.370400
vn -0.949300 0.314200 -0.012200
vn -0.948800 0.315500 -0.012000
vn -0.948600 0.316600 -0.002100
vn -0.949000 0.315200 -0.002000
vn -0.947100 0.320800 -0.001900
vn -0.944600 0.328200 -0.001700
s 1
f 1/1/1 2/2/2 3/3/3 4/4/4
f 2/1/2 5/2/5 6/3/6 3/4/3
f 4/1/4 3/2/3 7/3/7 8/4/8
f 3/1/3 6/2/6 9/3/9 7/4/7
f 10/1/10 11/2/11 12/3/12 13/4/13
f 11/1/11 14/2/14 15/3/15 12/4/12
f 13/1/13 12/2/12 6/3/6 5/4/5
f 12/1/12 15/2/15 9/3/9 6/4/6
f 16/1/16 17/2/17 18/3/18 19/4/19
f 17/1/17 20/2/20 21/3/21 18/4/18
f 19/1/19 18/2/18 15/3/15 14/4/14
f 18/1/18 21/2/21 9/3/9 15/4/15
f 22/1/22 23/2/23 24/3/24 25/4/25
f 23/1/23 8/2/8 7/3/7 24/4/24
f 25/1/25 24/2/24 21/3/21 20/4/20
f 24/1/24 7/2/7 9/3/9 21/4/21
f 26/1/26 27/2/27 28/3/28 29/4/29
f 27/1/27 30/2/30 31/3/31 28/4/28
f 29/1/29 28/2/28 32/3/32 33/4/33
f 28/1/28 31/2/31 34/3/34 32/4/32
f 35/1/35 36/2/36 37/3/37 38/4/38
f 36/1/36 39/2/39 40/3/40 37/4/37
f 38/1/38 37/2/37 31/3/31 30/4/30
f 37/1/37 40/2/40 34/3/34 31/4/31
f 41/1/41 42/2/42 43/3/43 44/4/44
f 42/1/42 45/2/45 46/3/46 43/4/43
f 44/1/44 43/2/43 40/3/40 39/4/39
f 43/1/43 46/2/46 34/3/34 40/4/40
f 47/1/47 48/2/48 49/3/49 50/4/50
f 48/1/48 33/2/33 32/3/32 49/4/49
f 50/1/50 49/2/49 46/3/46 45/4/45
f 49/1/49 32/2/32 34/3/34 46/4/46
f 26/1/26 51/2/51 52/3/52 27/4/27
f 51/1/51 53/2/53 54/3/54 52/4/52
f 27/1/27 52/2/52 55/3/55 30/4/30
f 52/1/52 54/2/54 56/3/56 55/4/55
f 57/1/57 58/2/58 59/3/59 60/4/60
f 58/1/58 61/2/61 62/3/62 59/4/59
f 60/1/60 59/2/59 54/3/54 53/4/53
f 59/1/59 62/2/62 56/3/56 54/4/54
f 63/1/63 64/2/64 65/3/65 66/4/66
f 64/1/64 67/2/67 68/3/68 65/4/65
f 66/1/66 65/2/65 62/3/62 61/4/61
f 65/1/65 68/2/68 56/3/56 62/4/62
f 35/1/35 38/2/38 69/3/69 70/4/70
f 38/1/38 30/2/30 55/3/55 69/4/69
f 70/1/70 69/2/69 68/3/68 67/4/67
f 69/1/69 55/2/55 56/3/56 68/4/68
f 57/1/57 71/2/71 72/3/72 58/4/58
f 71/1/71 73/2/73 74/3/74 72/4/72
f 58/1/58 72/2/72 75/3/75 61/4/61
f 72/1/72 74/2/74 76/3/76 75/4/75
f 77/1/77 78/2/78 79/3/79 80/4/80
f 78/1/78 81/2/81 82/3/82 79/4/79
f 80/1/80 79/2/79 74/3/74 73/4/73
f 79/1/79 82/2/82 76/3/76 74/4/74
f 83/1/83 84/2/84 85/3/85 86/4/86
f 84/1/84 87/2/87 88/3/88 85/4/85
f 86/1/86 85/2/85 82/3/82 81/4/81
f 85/1/85 88/2/88 76/3/76 82/4/82
f 63/1/63 66/2/66 89/3/89 90/4/90
f 66/1/66 61/2/61 75/3/75 89/4/89
f 90/1/90 89/2/89 88/3/88 87/4/87
f 89/1/89 75/2/75 76/3/76 88/4/88
f 77/1/77 91/2/91 92/3/92 78/4/78
f 91/1/91 93/2/93 94/3/94 92/4/92
f 78/1/78 92/2/92 95/3/95 81/4/81
f 92/1/92 94/2/94 96/3/96 95/4/95
f 97/1/97 98/2/98 99/3/99 100/4/100
f 98/1/98 101/2/101 102/3/102 99/4/99
f 100/1/100 99/2/99 94/3/94 93/4/93
f 99/1/99 102/2/102 96/3/96 94/4/94
f 103/1/103 104/2/104 105/3/105 106/4/106
f 104/1/104 107/2/107 108/3/108 105/4/105
f 106/1/106 105/2/105 102/3/102 101/4/101
f 105/1/105 108/2/108 96/3/96 102/4/102
f 83/1/83 86/2/86 109/3/109 110/4/110
f 86/1/86 81/2/81 95/3/95 109/4/109
f 110/1/110 109/2/109 108/3/108 107/4/107
f 109/1/109 95/2/95 96/3/96 108/4/108
f 111/1/111 112/2/112 113/3/113 114/4/10
f 112/1/112 115/2/114 116/3/115 113/4/113
f 114/1/10 113/2/113 117/3/116 118/4/10
f 113/1/113 116/2/115 119/3/117 117/4/116
f 120/1/118 121/2/119 122/3/120 123/4/121
f 121/1/119 124/2/122 125/3/118 122/4/120
f 123/1/121 122/2/120 116/3/115 115/4/114
f 122/1/120 125/2/118 119/3/117 116/4/115
f 126/1/119 127/2/123 128/3/123 129/4/119
f 127/1/123 130/2/124 131/3/125 128/4/123
f 129/1/119 128/2/123 125/3/118 124/4/122
f 128/1/123 131/2/125 119/3/117 125/4/118
f 10/1/10 132/2/10 133/3/116 134/4/126
f 132/1/10 118/2/10 117/3/116 133/4/116
f 134/1/126 133/2/116 131/3/125 130/4/124
f 133/1/116 117/2/116 119/3/117 131/4/125
f 135/1/127 136/2/128 137/3/129 138/4/130
f 136/1/128 139/2/131 140/3/132 137/4/129
f 138/1/130 137/2/129 141/3/133 142/4/134
f 137/1/129 140/2/132 143/3/135 141/4/133
f 26/1/26 29/2/29 144/3/136 145/4/137
f 29/1/29 33/2/33 146/3/138 144/4/136
f 145/1/137 144/2/136 140/3/132 139/4/131
f 144/1/136 146/2/138 143/3/135 140/4/132
f 47/1/47 147/2/139 148/3/140 48/4/48
f 147/1/139 149/2/141 150/3/142 148/4/140
f 48/1/48 148/2/140 146/3/138 33/4/33
f 148/1/140 150/2/142 143/3/135 146/4/138
f 151/1/143 152/2/144 153/3/145 154/4/146
f 152/1/144 142/2/134 141/3/133 153/4/145
f 154/1/146 153/2/145 150/3/142 149/4/141
f 153/1/145 141/2/133 143/3/135 150/4/142
f 135/1/127 155/2/147 156/3/148 136/4/128
f 155/1/147 157/2/149 158/3/150 156/4/148
f 136/1/128 156/2/148 159/3/151 139/4/131
f 156/1/148 158/2/150 160/3/152 159/4/151
f 161/1/153 162/2/154 163/3/155 164/4/156
f 162/1/154 165/2/157 166/3/158 163/4/155
f 164/1/156 163/2/155 158/3/150 157/4/149
f 163/1/155 166/2/158 160/3/152 158/4/150
f 57/1/57 60/2/60 167/3/159 168/4/160
f 60/1/60 53/2/53 169/3/161 167/4/159
f 168/1/160 167/2/159 166/3/158 165/4/157
f 167/1/159 169/2/161 160/3/152 166/4/158
f 26/1/26 145/2/137 170/3/162 51/4/51
f 145/1/137 139/2/131 159/3/151 170/4/162
f 51/1/51 170/2/162 169/3/161 53/4/53
f 170/1/162 159/2/151 160/3/152 169/4/161
f 161/1/153 171/2/163 172/3/164 162/4/154
f 171/1/163 173/2/165 174/3/166 172/4/164
f 162/1/154 172/2/164 175/3/167 165/4/157
f 172/1/164 174/2/166 176/3/168 175/4/167
f 177/1/169 178/2/170 179/3/171 180/4/172
f 178/1/170 181/2/173 182/3/174 179/4/171
f 180/1/172 179/2/171 174/3/166 173/4/165
f 179/1/171 182/2/174 176/3/168 174/4/166
f 77/1/77 80/2/80 183/3/175 184/4/176
f 80/1/80 73/2/73 185/3/177 183/4/175
f 184/1/176 183/2/175 182/3/174 181/4/173
f 183/1/175 185/2/177 176/3/168 182/4/174
f 57/1/57 168/2/160 186/3/178 71/4/71
f 168/1/160 165/2/157 175/3/167 186/4/178
f 71/1/71 186/2/178 185/3/177 73/4/73
f 186/1/178 175/2/167 176/3/168 185/4/177
f 177/1/169 187/2/179 188/3/180 178/4/170
f 187/1/179 189/2/181 190/3/182 188/4/180
f 178/1/170 188/2/180 191/3/183 181/4/173
f 188/1/180 190/2/182 192/3/184 191/4/183
f 193/1/185 194/2/186 195/3/187 196/4/188
f 194/1/186 197/2/189 198/3/190 195/4/187
f 196/1/188 195/2/187 190/3/182 189/4/181
f 195/1/187 198/2/190 192/3/184 190/4/182
f 97/1/97 100/2/100 199/3/191 200/4/192
f 100/1/100 93/2/93 201/3/193 199/4/191
f 200/1/192 199/2/191 198/3/190 197/4/189
f 199/1/191 201/2/193 192/3/184 198/4/190
f 77/1/77 184/2/176 202/3/194 91/4/91
f 184/1/176 181/2/173 191/3/183 202/4/194
f 91/1/91 202/2/194 201/3/193 93/4/93
f 202/1/194 191/2/183 192/3/184 201/4/193
f 10/1/10 134/2/126 203/3/195 11/4/11
f 134/1/126 130/2/124 204/3/196 203/4/195
f 11/1/11 203/2/195 205/3/197 14/4/14
f 203/1/195 204/2/196 206/3/198 205/4/197
f 126/1/119 207/2/199 208/3/200 127/4/123
f 207/1/199 209/2/201 210/3/202 208/4/200
f 127/1/123 208/2/200 204/3/196 130/4/124
f 208/1/200 210/2/202 206/3/198 204/4/196
f 211/1/203 212/2/204 213/3/205 214/4/206
f 212/1/204 215/2/207 216/3/208 213/4/205
f 214/1/206 213/2/205 210/3/202 209/4/201
f 213/1/205 216/2/208 206/3/198 210/4/202
f 16/1/16 19/2/19 217/3/209 218/4/210
f 19/1/19 14/2/14 205/3/197 217/4/209
f 218/1/210 217/2/209 216/3/208 215/4/207
f 217/1/209 205/2/197 206/3/198 216/4/208
f 219/1/211 220/2/212 221/3/213 222/4/214
f 220/1/212 223/2/215 224/3/216 221/4/213
f 222/1/214 221/2/213 225/3/217 226/4/1
f 221/1/213 224/2/216 227/3/218 225/4/217
f 111/1/111 114/2/10 228/3/219 229/4/220
f 114/1/10 118/2/10 230/3/221 228/4/219
f 229/1/220 228/2/219 224/3/216 223/4/215
f 228/1/219 230/2/221 227/3/218 224/4/216
f 10/1/10 13/2/13 231/3/13 132/4/10
f 13/1/13 5/2/5 232/3/222 231/4/13
f 132/1/10 231/2/13 230/3/221 118/4/10
f 231/1/13 232/2/222 227/3/218 230/4/221
f 1/1/1 233/2/1 234/3/1 2/4/2
f 233/1/1 226/2/1 225/3/217 234/4/1
f 2/1/2 234/2/1 232/3/222 5/4/5
f 234/1/1 225/2/217 227/3/218 232/4/222
f 22/1/22 25/2/25 235/3/223 236/4/224
f 25/1/25 20/2/20 237/3/225 235/4/223
f 236/1/224 235/2/223 238/3/226 239/4/227
f 235/1/223 237/2/225 240/3/228 238/4/226
f 16/1/16 241/2/229 242/3/230 17/4/17
f 241/1/229 243/2/231 244/3/232 242/4/230
f 17/1/17 242/2/230 237/3/225 20/4/20
f 242/1/230 244/2/232 240/3/228 237/4/225
f 47/1/47 50/2/50 245/3/233 246/4/234
f 50/1/50 45/2/45 247/3/235 245/4/233
f 246/1/234 245/2/233 244/3/232 243/4/231
f 245/1/233 247/2/235 240/3/228 244/4/232
f 41/1/41 248/2/236 249/3/237 42/4/42
f 248/1/236 239/2/227 238/3/226 249/4/237
f 42/1/42 249/2/237 247/3/235 45/4/45
f 249/1/237 238/2/226 240/3/228 247/4/235
f 16/1/16 218/2/210 250/3/238 241/4/229
f 218/1/210 215/2/207 251/3/239 250/4/238
f 241/1/229 250/2/238 252/3/240 243/4/231
f 250/1/238 251/2/239 253/3/241 252/4/240
f 211/1/203 254/2/242 255/3/243 212/4/204
f 254/1/242 256/2/244 257/3/245 255/4/243
f 212/1/204 255/2/243 251/3/239 215/4/207
f 255/1/243 257/2/245 253/3/241 251/4/239
f 151/1/143 154/2/146 258/3/246 259/4/247
f 154/1/146 149/2/141 260/3/248 258/4/246
f 259/1/247 258/2/246 257/3/245 256/4/244
f 258/1/246 260/2/248 253/3/241 257/4/245
f 47/1/47 246/2/234 261/3/249 147/4/139
f 246/1/234 243/2/231 252/3/240 261/4/249
f 147/1/139 261/2/249 260/3/248 149/4/141
f 261/1/249 252/2/240 253/3/241 260/4/248
