# Blender v2.76 (sub 0) OBJ File: 'VehicleAppScene.blend'
# www.blender.org
o glass
v 1.017374 2.318092 -1.449527
v 1.018424 2.318092 -1.449527
v 1.045401 2.250232 -1.442066
v 1.044351 2.250232 -1.442066
v 1.072533 2.181076 -1.434445
v 1.071483 2.181076 -1.434445
v 1.019235 2.318096 -1.449497
v 1.046212 2.250236 -1.442037
v 1.073345 2.181078 -1.434417
v 1.126830 2.033686 -1.418079
v 1.098924 2.109326 -1.426503
v 1.099974 2.109326 -1.426503
v 1.127880 2.033686 -1.418079
v 1.100786 2.109328 -1.426475
v 1.128693 2.033687 -1.418052
v 1.129700 2.033700 -1.417800
v 1.129291 2.033692 -1.417968
v 1.101384 2.109335 -1.426390
v 1.101791 2.109348 -1.426220
v 1.073941 2.181087 -1.434330
v 1.074346 2.181105 -1.434157
v 1.020232 2.318132 -1.449229
v 1.047212 2.250267 -1.441774
v 1.046808 2.250246 -1.441949
v 1.019830 2.318108 -1.449408
v 1.122096 2.044055 -0.918680
v 1.124500 2.044769 -1.086062
v 1.093514 2.127681 -1.089715
v 1.090199 2.128645 -0.920336
v 1.063212 2.205605 -1.092769
v 1.058987 2.208189 -0.921506
v 1.126449 2.042975 -1.210776
v 1.096378 2.123902 -1.216069
v 1.066951 2.200069 -1.220740
v 0.997702 2.358863 -0.923034
v 1.028231 2.284367 -0.922351
v 1.033366 2.280205 -1.095422
v 1.003749 2.353142 -1.097875
v 1.037953 2.273062 -1.224998
v 1.009169 2.344469 -1.229048
v 1.017150 2.326605 -1.385459
v 1.013718 2.334928 -1.322820
v 1.041791 2.264891 -1.317423
v 1.044681 2.257644 -1.379042
v 1.070058 2.193368 -1.311829
v 1.072387 2.187291 -1.372446
v 1.129022 2.036836 -1.358008
v 1.100443 2.114153 -1.365494
v 1.098714 2.118872 -1.305845
v 1.127953 2.039916 -1.299275
v 1.086514 2.125233 -0.701482
v 1.119228 2.039589 -0.702181
v 1.083533 2.116819 -0.456079
v 1.116715 2.031139 -0.459295
v 1.054422 2.206030 -0.700541
v 1.050895 2.197973 -0.452951
v 1.116034 2.001356 0.014710
v 1.115376 2.018472 -0.212754
v 1.082332 2.102777 -0.207055
v 1.083986 2.082481 0.022665
v 1.049782 2.182860 -0.201810
v 1.052460 2.159533 0.029806
v 0.990282 2.306849 0.042735
v 1.021284 2.233870 0.036406
v 1.017562 2.260128 -0.196867
v 0.985508 2.335989 -0.192075
v 1.018619 2.276109 -0.449880
v 0.986524 2.352738 -0.446837
v 0.991275 2.359545 -0.698256
v 1.022745 2.283595 -0.699439
v 1.089570 2.055307 0.210153
v 1.119506 1.979558 0.200366
v 1.098511 2.021147 0.368327
v 1.125466 1.952518 0.357442
v 1.060307 2.126836 0.218822
v 1.072423 2.085326 0.377858
v 1.143544 1.880470 0.638767
v 1.133588 1.919675 0.499166
v 1.110235 1.979896 0.510106
v 1.124168 1.931448 0.648408
v 1.087906 2.035559 0.519536
v 1.105858 1.978092 0.656478
v 1.071015 2.064155 0.670000
v 1.088259 2.021846 0.663501
v 1.066260 2.088182 0.527959
v 1.044956 2.139286 0.535879
v 1.046912 2.146538 0.386486
v 1.021691 2.206266 0.394662
v 1.002904 2.262864 0.234297
v 1.031494 2.195553 0.226746
v 1.139736 1.875697 0.796150
v 1.155006 1.834340 0.789473
v 1.156530 1.814469 0.950973
v 1.167598 1.783019 0.948508
v 1.125378 1.913483 0.801304
v 1.145872 1.844123 0.950979
v 1.194666 1.671721 1.280458
v 1.180944 1.728235 1.113095
v 1.174142 1.749589 1.110516
v 1.192163 1.682883 1.272420
v 1.166747 1.772404 1.102463
v 1.187811 1.699505 1.254852
v 1.167405 1.767696 1.158347
v 1.180071 1.726228 1.219560
v 1.157878 1.799425 1.085073
v 1.148272 1.828548 1.063016
v 1.135219 1.873389 0.947923
v 1.124567 1.902460 0.943336
v 1.098183 1.983104 0.809075
v 1.111629 1.948889 0.805444
v 1.120674 2.033686 -1.418079
v 1.122376 2.033686 -1.418079
v 1.150901 1.952858 -1.409014
v 1.149199 1.952858 -1.409014
v 1.179024 1.870910 -1.399780
v 1.176454 1.873679 -1.400093
v 1.124013 2.033686 -1.418079
v 1.152538 1.952858 -1.409014
v 1.181311 1.868833 -1.399545
v 1.219597 1.747603 -1.385837
v 1.200550 1.802982 -1.392105
v 1.205721 1.791906 -1.390851
v 1.231706 1.714375 -1.382076
v 1.209960 1.783599 -1.389911
v 1.238547 1.697761 -1.380195
v 1.243099 1.692223 -1.379569
v 1.241788 1.692223 -1.379569
v 1.212334 1.780830 -1.389598
v 1.213644 1.780830 -1.389598
v 1.183034 1.868141 -1.399466
v 1.184345 1.868141 -1.399466
v 1.155356 1.952858 -1.409014
v 1.154045 1.952858 -1.409014
v 1.125520 2.033686 -1.418079
v 1.256526 1.655226 -0.907190
v 1.255287 1.663252 -1.065446
v 1.222020 1.762787 -1.071100
v 1.222348 1.756639 -0.910468
v 1.188981 1.860660 -1.076554
v 1.188399 1.856370 -0.913584
v 1.253165 1.671660 -1.183400
v 1.220949 1.768456 -1.190761
v 1.188949 1.863665 -1.197916
v 1.154905 1.952736 -0.916375
v 1.156398 1.955208 -1.081608
v 1.157377 1.955700 -1.204656
v 1.157969 1.955013 -1.291922
v 1.158301 1.953948 -1.349808
v 1.188568 1.865650 -1.283984
v 1.188105 1.866882 -1.341074
v 1.248586 1.685786 -1.322716
v 1.218258 1.777030 -1.331984
v 1.219556 1.773315 -1.275655
v 1.250738 1.679492 -1.267130
v 1.221514 1.750346 -0.702662
v 1.256301 1.648546 -0.702553
v 1.219881 1.743929 -0.469518
v 1.254874 1.643165 -0.473022
v 1.186935 1.850530 -0.702690
v 1.185070 1.843186 -0.466043
v 1.249454 1.636123 -0.025235
v 1.252504 1.639038 -0.240087
v 1.217810 1.737414 -0.232876
v 1.215663 1.730825 -0.014572
v 1.183281 1.834384 -0.225815
v 1.182047 1.824170 -0.004179
v 1.148779 1.914800 0.005672
v 1.149081 1.928539 -0.219058
v 1.150620 1.939425 -0.462626
v 1.152771 1.947483 -0.702556
v 1.213803 1.724185 0.163556
v 1.245984 1.634373 0.150044
v 1.212113 1.716962 0.315756
v 1.241959 1.633499 0.300356
v 1.181847 1.812591 0.176695
v 1.182557 1.798942 0.330705
v 1.231706 1.633207 0.584497
v 1.237244 1.633207 0.440305
v 1.210476 1.708623 0.456279
v 1.208777 1.698635 0.599373
v 1.184050 1.782519 0.471749
v 1.186203 1.762618 0.613726
v 1.164340 1.823711 0.627032
v 1.158307 1.853376 0.486212
v 1.153578 1.877955 0.344750
v 1.150340 1.898184 0.189089
v 1.206897 1.686466 0.759289
v 1.225208 1.633207 0.747535
v 1.205077 1.672946 0.925694
v 1.218380 1.633777 0.912458
v 1.188891 1.738535 0.770534
v 1.192027 1.711386 0.936935
v 1.206239 1.638905 1.180105
v 1.211848 1.635486 1.062302
v 1.203555 1.658905 1.088260
v 1.202182 1.644603 1.248905
v 1.195528 1.682288 1.107688
v 1.199211 1.652216 1.280618
v 1.196860 1.661377 1.287164
v 1.188032 1.705600 1.114060
v 1.179482 1.748367 0.944184
v 1.171492 1.788223 0.780765
v 1.156405 1.952858 -1.409014
v 1.185395 1.868141 -1.399466
v 1.157218 1.952859 -1.408986
v 1.186208 1.868141 -1.399439
v 1.214694 1.780830 -1.389598
v 1.244148 1.692223 -1.379569
v 1.215508 1.780829 -1.389571
v 1.244962 1.692220 -1.379542
v 1.245983 1.692193 -1.379305
v 1.245566 1.692211 -1.379463
v 1.216110 1.780823 -1.389491
v 1.216525 1.780813 -1.389330
v 1.186809 1.868139 -1.399358
v 1.187222 1.868135 -1.399195
v 1.158228 1.952863 -1.408739
v 1.157818 1.952860 -1.408904
v 1.029142 2.275680 -1.444864
v 1.020090 2.301127 -1.447662
v 1.043482 2.241750 -1.441134
v 1.045364 2.233267 -1.440201
v 1.067925 2.178955 -1.434212
v 1.067119 2.176835 -1.433979
v 1.016349 2.313851 -1.449060
v 1.042430 2.248112 -1.441833
v 1.068890 2.180546 -1.434387
v 1.092768 2.109326 -1.426503
v 1.094470 2.109326 -1.426503
v 1.096107 2.109326 -1.426503
v 1.097614 2.109326 -1.426503
v 1.070172 2.181076 -1.434445
v 1.043040 2.250232 -1.442066
v 1.016063 2.318092 -1.449527
v 1.020463 2.318171 -1.448932
v 1.047445 2.250301 -1.441481
v 1.074582 2.181134 -1.433869
v 1.020224 2.319049 -1.442328
v 1.047264 2.251065 -1.434985
v 1.074460 2.181774 -1.427480
v 1.102029 2.109370 -1.425936
v 1.129942 2.033715 -1.417521
v 1.101971 2.109868 -1.419649
v 1.129952 2.034040 -1.411330
v 1.129667 2.034979 -1.393426
v 1.101485 2.111307 -1.401465
v 1.073791 2.183627 -1.409001
v 1.046424 2.253274 -1.416201
v 1.019219 2.321586 -1.423233
v 1.158474 1.952869 -1.408464
v 1.187471 1.868129 -1.398924
v 1.158562 1.952981 -1.402362
v 1.187643 1.868000 -1.392906
v 1.216778 1.780795 -1.389063
v 1.246240 1.692163 -1.379041
v 1.217038 1.780404 -1.383125
v 1.246591 1.691500 -1.373181
v 1.247288 1.689581 -1.356236
v 1.217475 1.779271 -1.365953
v 1.187825 1.867624 -1.375502
v 1.158502 1.953306 -1.384716
vt 0.000000 0.000000
vt 1.000000 0.000000
vt 1.000000 1.000000
vt 0.000000 1.000000
vn 0.000000 -0.109300 -0.994000
vn 0.018300 -0.102100 -0.994600
vn 0.018100 -0.102300 -0.994600
vn 0.000000 -0.109400 -0.994000
vn 0.017800 -0.102900 -0.994500
vn 0.000000 -0.109800 -0.994000
vn 0.092200 -0.072500 -0.993100
vn 0.091600 -0.073100 -0.993100
vn 0.090100 -0.074700 -0.993100
vn 0.000000 -0.111100 -0.993800
vn 0.000000 -0.110300 -0.993900
vn 0.017500 -0.103800 -0.994400
vn 0.017200 -0.104900 -0.994300
vn 0.088200 -0.077100 -0.993100
vn 0.087000 -0.079500 -0.993000
vn 0.574100 0.116700 -0.810500
vn 0.260800 -0.013600 -0.965300
vn 0.265400 -0.007200 -0.964100
vn 0.579500 0.128600 -0.804700
vn 0.269900 -0.001700 -0.962900
vn 0.584700 0.138200 -0.799400
vn 0.593400 0.148900 -0.791000
vn 0.590500 0.145900 -0.793700
vn 0.274100 0.002400 -0.961700
vn 0.276500 0.004200 -0.961000
vn 0.938000 0.346100 0.017300
vn 0.939000 0.343600 0.012400
vn 0.934000 0.357000 0.013400
vn 0.932900 0.359600 0.018800
vn 0.929900 0.367600 0.014400
vn 0.928700 0.370200 0.020100
vn 0.939700 0.341800 0.007000
vn 0.934800 0.355000 0.007600
vn 0.930800 0.365400 0.008200
vn 0.925000 0.379400 0.021900
vn 0.925900 0.377100 0.021300
vn 0.927100 0.374400 0.015400
vn 0.926200 0.376800 0.016000
vn 0.928100 0.372100 0.009000
vn 0.927200 0.374500 0.009600
vn 0.928600 0.371000 0.000800
vn 0.928100 0.372400 0.003600
vn 0.929000 0.370100 0.003000
vn 0.929500 0.368700 0.000300
vn 0.931600 0.363600 0.002300
vn 0.932000 0.362400 -0.000400
vn 0.940500 0.339900 -0.000600
vn 0.935800 0.352500 -0.000700
vn 0.935500 0.353400 0.001900
vn 0.940200 0.340600 0.001800
vn 0.931600 0.362800 0.022500
vn 0.936700 0.349400 0.020700
vn 0.930200 0.366100 0.024500
vn 0.935300 0.353000 0.022600
vn 0.927400 0.373300 0.024100
vn 0.926100 0.376300 0.026100
vn 0.933500 0.357900 0.024400
vn 0.934100 0.356100 0.023700
vn 0.929100 0.368900 0.025600
vn 0.928500 0.370300 0.026000
vn 0.925100 0.378800 0.027200
vn 0.924600 0.380000 0.027500
vn 0.921100 0.388200 0.028900
vn 0.922000 0.386200 0.028500
vn 0.922400 0.385100 0.028400
vn 0.921500 0.387200 0.028900
vn 0.923400 0.382900 0.027400
vn 0.922500 0.385100 0.028000
vn 0.923700 0.382300 0.026000
vn 0.924600 0.380000 0.025400
vn 0.928700 0.369800 0.026600
vn 0.933600 0.357500 0.025300
vn 0.929800 0.366900 0.028200
vn 0.934500 0.354900 0.027100
vn 0.924800 0.379400 0.027900
vn 0.925900 0.376600 0.029300
vn 0.938500 0.343900 0.031700
vn 0.936200 0.350300 0.029500
vn 0.931700 0.361900 0.030500
vn 0.934400 0.354600 0.032600
vn 0.927900 0.371500 0.031500
vn 0.930900 0.363600 0.033600
vn 0.927600 0.372100 0.033400
vn 0.928300 0.370200 0.033900
vn 0.925500 0.377500 0.031800
vn 0.924500 0.379900 0.031700
vn 0.923300 0.382800 0.029800
vn 0.922600 0.384700 0.029900
vn 0.921500 0.387300 0.028900
vn 0.922300 0.385500 0.028600
vn 0.937800 0.345600 0.033300
vn 0.941500 0.335400 0.032300
vn 0.943200 0.330900 0.029300
vn 0.946100 0.322500 0.029800
vn 0.934800 0.353500 0.033700
vn 0.940200 0.339200 0.029700
vn 0.967100 0.254400 0.006400
vn 0.958600 0.284300 0.017000
vn 0.956100 0.292600 0.012800
vn 0.964800 0.263100 -0.000500
vn 0.951000 0.308900 0.015800
vn 0.957900 0.286900 0.005000
vn 0.949700 0.312900 0.012000
vn 0.951600 0.307100 0.011200
vn 0.946600 0.321800 0.018600
vn 0.945500 0.325200 0.018400
vn 0.938300 0.344700 0.029000
vn 0.937800 0.346100 0.027900
vn 0.932000 0.361100 0.032500
vn 0.932700 0.359100 0.033100
vn 0.000000 -0.111000 -0.993800
vn 0.000200 -0.111700 -0.993700
vn 0.000200 -0.111600 -0.993800
vn 0.000600 -0.111900 -0.993700
vn 0.000500 -0.111800 -0.993700
vn 0.000100 -0.111700 -0.993700
vn 0.000400 -0.112000 -0.993700
vn -0.000200 -0.112400 -0.993700
vn 0.000500 -0.112200 -0.993700
vn 0.000300 -0.112300 -0.993700
vn 0.000000 -0.112500 -0.993700
vn 0.000100 -0.112400 -0.993700
vn 0.000000 -0.112400 -0.993700
vn 0.000100 -0.112100 -0.993700
vn -0.000000 -0.112100 -0.993700
vn -0.000000 -0.111700 -0.993700
vn 0.947300 0.320100 0.011100
vn 0.948200 0.317700 0.007900
vn 0.947700 0.319100 0.008500
vn 0.946800 0.321500 0.011900
vn 0.946200 0.323600 0.009800
vn 0.945300 0.326000 0.013800
vn 0.948600 0.316300 0.004300
vn 0.948200 0.317700 0.004600
vn 0.946700 0.322100 0.005500
vn 0.942500 0.333900 0.015600
vn 0.943400 0.331400 0.011200
vn 0.944000 0.329900 0.006400
vn 0.944400 0.328900 0.001700
vn 0.944500 0.328400 -0.000600
vn 0.947000 0.321300 0.001300
vn 0.947100 0.320900 -0.000700
vn 0.949000 0.315300 -0.001100
vn 0.948500 0.316700 -0.001000
vn 0.948400 0.316900 0.000800
vn 0.948900 0.315500 0.000500
vn 0.945600 0.324900 0.014600
vn 0.946100 0.323500 0.013600
vn 0.944200 0.328900 0.016500
vn 0.944700 0.327400 0.015500
vn 0.944000 0.329400 0.016700
vn 0.942700 0.333300 0.018500
vn 0.942600 0.333300 0.020300
vn 0.943500 0.331000 0.017500
vn 0.942900 0.332500 0.018300
vn 0.942100 0.334700 0.020800
vn 0.941400 0.336800 0.020000
vn 0.940600 0.338900 0.021800
vn 0.937800 0.346400 0.022900
vn 0.938600 0.344400 0.021800
vn 0.939800 0.341100 0.020500
vn 0.941200 0.337300 0.018700
vn 0.942000 0.334800 0.024300
vn 0.942400 0.333500 0.024200
vn 0.942600 0.332800 0.028500
vn 0.943000 0.331600 0.028800
vn 0.940500 0.339000 0.024200
vn 0.941100 0.336900 0.027300
vn 0.945500 0.323500 0.035800
vn 0.944200 0.327700 0.033300
vn 0.943700 0.329200 0.032300
vn 0.945300 0.324400 0.034800
vn 0.942400 0.333200 0.030500
vn 0.944200 0.327700 0.032900
vn 0.941900 0.334300 0.031600
vn 0.940000 0.339900 0.029400
vn 0.938600 0.344100 0.026700
vn 0.937800 0.346300 0.024400
vn 0.947200 0.318700 0.035800
vn 0.947600 0.317300 0.037000
vn 0.950100 0.310000 0.035600
vn 0.950300 0.309200 0.036800
vn 0.946200 0.321900 0.033900
vn 0.949500 0.312100 0.033300
vn 0.956600 0.289300 0.035100
vn 0.954200 0.296900 0.035700
vn 0.954600 0.295800 0.033900
vn 0.957600 0.286200 0.032700
vn 0.956300 0.290900 0.029900
vn 0.961000 0.275100 0.027200
vn 0.965100 0.261100 0.018700
vn 0.958200 0.285000 0.024400
vn 0.948300 0.316000 0.031200
vn 0.944300 0.327400 0.032600
vn 0.016900 -0.105900 -0.994200
vn 0.016500 -0.106600 -0.994200
vn 0.085300 -0.081900 -0.993000
vn 0.083700 -0.083600 -0.993000
vn 0.016300 -0.107000 -0.994100
vn 0.016200 -0.107200 -0.994100
vn 0.082100 -0.084800 -0.993000
vn 0.081200 -0.085400 -0.993000
vn 0.553900 0.090500 -0.827700
vn 0.245700 -0.027900 -0.968900
vn 0.248400 -0.026500 -0.968300
vn 0.557300 0.092900 -0.825100
vn 0.252400 -0.023600 -0.967300
vn 0.563400 0.098500 -0.820300
vn 0.569000 0.106100 -0.815500
vn 0.256700 -0.019300 -0.966300
vn 0.000100 -0.109300 -0.994000
vn 0.000100 -0.109200 -0.994000
vn 0.000400 -0.109300 -0.994000
vn 0.001100 -0.109200 -0.994000
vn 0.000800 -0.109500 -0.994000
vn 0.000600 -0.109700 -0.994000
vn 0.000200 -0.109300 -0.994000
vn 0.000400 -0.109600 -0.994000
vn 0.000300 -0.110200 -0.993900
vn 0.000200 -0.110300 -0.993900
vn 0.000100 -0.110300 -0.993900
vn 0.000100 -0.109700 -0.994000
vn 0.887400 0.316100 -0.335500
vn 0.887300 0.313200 -0.338500
vn 0.887800 0.305700 -0.344000
vn 0.929500 0.368800 -0.008500
vn 0.930300 0.366600 -0.009300
vn 0.932700 0.360400 -0.010300
vn 0.889300 0.295000 -0.349500
vn 0.891400 0.281700 -0.354900
vn 0.936400 0.350700 -0.010800
vn 0.940900 0.338400 -0.011000
vn 0.940600 0.339500 -0.001600
vn 0.936000 0.351900 -0.001700
vn 0.932300 0.361600 -0.001400
vn 0.929900 0.367900 -0.000600
vn 0.929000 0.370100 -0.000100
vn 0.893000 0.269900 -0.360100
vn 0.893400 0.261400 -0.365500
vn 0.944900 0.327200 -0.011200
vn 0.947400 0.319800 -0.011600
vn 0.892900 0.256400 -0.370300
vn 0.892400 0.254400 -0.372600
vn 0.948800 0.315500 -0.012000
vn 0.949300 0.314200 -0.012200
vn 0.949000 0.315200 -0.002000
vn 0.948600 0.316600 -0.002100
vn 0.947100 0.320800 -0.001900
vn 0.944600 0.328200 -0.001700
s 1
f 1/1/1 2/2/2 3/3/3 4/4/4
f 4/1/4 3/2/3 5/3/5 6/4/6
f 2/1/2 7/2/7 8/3/8 3/4/3
f 3/1/3 8/2/8 9/3/9 5/4/5
f 10/1/10 11/2/11 12/3/12 13/4/13
f 13/1/13 12/2/12 14/3/14 15/4/15
f 11/1/11 6/2/6 5/3/5 12/4/12
f 12/1/12 5/2/5 9/3/9 14/4/14
f 16/1/16 17/2/17 18/3/18 19/4/19
f 19/1/19 18/2/18 20/3/20 21/4/21
f 17/1/17 15/2/15 14/3/14 18/4/18
f 18/1/18 14/2/14 9/3/9 20/4/20
f 22/1/22 23/2/23 24/3/24 25/4/25
f 25/1/25 24/2/24 8/3/8 7/4/7
f 23/1/23 21/2/21 20/3/20 24/4/24
f 24/1/24 20/2/20 9/3/9 8/4/8
f 26/1/26 27/2/27 28/3/28 29/4/29
f 29/1/29 28/2/28 30/3/30 31/4/31
f 27/1/27 32/2/32 33/3/33 28/4/28
f 28/1/28 33/2/33 34/3/34 30/4/30
f 35/1/35 36/2/36 37/3/37 38/4/38
f 38/1/38 37/2/37 39/3/39 40/4/40
f 36/1/36 31/2/31 30/3/30 37/4/37
f 37/1/37 30/2/30 34/3/34 39/4/39
f 41/1/41 42/2/42 43/3/43 44/4/44
f 44/1/44 43/2/43 45/3/45 46/4/46
f 42/1/42 40/2/40 39/3/39 43/4/43
f 43/1/43 39/2/39 34/3/34 45/4/45
f 47/1/47 48/2/48 49/3/49 50/4/50
f 50/1/50 49/2/49 33/3/33 32/4/32
f 48/1/48 46/2/46 45/3/45 49/4/49
f 49/1/49 45/2/45 34/3/34 33/4/33
f 26/1/26 29/2/29 51/3/51 52/4/52
f 52/1/52 51/2/51 53/3/53 54/4/54
f 29/1/29 31/2/31 55/3/55 51/4/51
f 51/1/51 55/2/55 56/3/56 53/4/53
f 57/1/57 58/2/58 59/3/59 60/4/60
f 60/1/60 59/2/59 61/3/61 62/4/62
f 58/1/58 54/2/54 53/3/53 59/4/59
f 59/1/59 53/2/53 56/3/56 61/4/61
f 63/1/63 64/2/64 65/3/65 66/4/66
f 66/1/66 65/2/65 67/3/67 68/4/68
f 64/1/64 62/2/62 61/3/61 65/4/65
f 65/1/65 61/2/61 56/3/56 67/4/67
f 35/1/35 69/2/69 70/3/70 36/4/36
f 36/1/36 70/2/70 55/3/55 31/4/31
f 69/1/69 68/2/68 67/3/67 70/4/70
f 70/1/70 67/2/67 56/3/56 55/4/55
f 57/1/57 60/2/60 71/3/71 72/4/72
f 72/1/72 71/2/71 73/3/73 74/4/74
f 60/1/60 62/2/62 75/3/75 71/4/71
f 71/1/71 75/2/75 76/3/76 73/4/73
f 77/1/77 78/2/78 79/3/79 80/4/80
f 80/1/80 79/2/79 81/3/81 82/4/82
f 78/1/78 74/2/74 73/3/73 79/4/79
f 79/1/79 73/2/73 76/3/76 81/4/81
f 83/1/83 84/2/84 85/3/85 86/4/86
f 86/1/86 85/2/85 87/3/87 88/4/88
f 84/1/84 82/2/82 81/3/81 85/4/85
f 85/1/85 81/2/81 76/3/76 87/4/87
f 63/1/63 89/2/89 90/3/90 64/4/64
f 64/1/64 90/2/90 75/3/75 62/4/62
f 89/1/89 88/2/88 87/3/87 90/4/90
f 90/1/90 87/2/87 76/3/76 75/4/75
f 77/1/77 80/2/80 91/3/91 92/4/92
f 92/1/92 91/2/91 93/3/93 94/4/94
f 80/1/80 82/2/82 95/3/95 91/4/91
f 91/1/91 95/2/95 96/3/96 93/4/93
f 97/1/97 98/2/98 99/3/99 100/4/100
f 100/1/100 99/2/99 101/3/101 102/4/102
f 98/1/98 94/2/94 93/3/93 99/4/99
f 99/1/99 93/2/93 96/3/96 101/4/101
f 103/1/103 104/2/104 105/3/105 106/4/106
f 106/1/106 105/2/105 107/3/107 108/4/108
f 104/1/104 102/2/102 101/3/101 105/4/105
f 105/1/105 101/2/101 96/3/96 107/4/107
f 83/1/83 109/2/109 110/3/110 84/4/84
f 84/1/84 110/2/110 95/3/95 82/4/82
f 109/1/109 108/2/108 107/3/107 110/4/110
f 110/1/110 107/2/107 96/3/96 95/4/95
f 111/1/111 112/2/10 113/3/112 114/4/113
f 114/1/113 113/2/112 115/3/114 116/4/115
f 112/1/10 117/2/10 118/3/116 113/4/112
f 113/1/112 118/2/116 119/3/117 115/4/114
f 120/1/118 121/2/119 122/3/120 123/4/121
f 123/1/121 122/2/120 124/3/122 125/4/121
f 121/1/119 116/2/115 115/3/114 122/4/120
f 122/1/120 115/2/114 119/3/117 124/4/122
f 126/1/121 127/2/121 128/3/123 129/4/123
f 129/1/123 128/2/123 130/3/124 131/4/125
f 127/1/121 125/2/121 124/3/122 128/4/123
f 128/1/123 124/2/122 119/3/117 130/4/124
f 10/1/10 132/2/126 133/3/116 134/4/10
f 134/1/10 133/2/116 118/3/116 117/4/10
f 132/1/126 131/2/125 130/3/124 133/4/116
f 133/1/116 130/2/124 119/3/117 118/4/116
f 135/1/127 136/2/128 137/3/129 138/4/130
f 138/1/130 137/2/129 139/3/131 140/4/132
f 136/1/128 141/2/133 142/3/134 137/4/129
f 137/1/129 142/2/134 143/3/135 139/4/131
f 26/1/26 144/2/136 145/3/137 27/4/27
f 27/1/27 145/2/137 146/3/138 32/4/32
f 144/1/136 140/2/132 139/3/131 145/4/137
f 145/1/137 139/2/131 143/3/135 146/4/138
f 47/1/47 50/2/50 147/3/139 148/4/140
f 148/1/140 147/2/139 149/3/141 150/4/142
f 50/1/50 32/2/32 146/3/138 147/4/139
f 147/1/139 146/2/138 143/3/135 149/4/141
f 151/1/143 152/2/144 153/3/145 154/4/146
f 154/1/146 153/2/145 142/3/134 141/4/133
f 152/1/144 150/2/142 149/3/141 153/4/145
f 153/1/145 149/2/141 143/3/135 142/4/134
f 135/1/127 138/2/130 155/3/147 156/4/148
f 156/1/148 155/2/147 157/3/149 158/4/150
f 138/1/130 140/2/132 159/3/151 155/4/147
f 155/1/147 159/2/151 160/3/152 157/4/149
f 161/1/153 162/2/154 163/3/155 164/4/156
f 164/1/156 163/2/155 165/3/157 166/4/158
f 162/1/154 158/2/150 157/3/149 163/4/155
f 163/1/155 157/2/149 160/3/152 165/4/157
f 57/1/57 167/2/159 168/3/160 58/4/58
f 58/1/58 168/2/160 169/3/161 54/4/54
f 167/1/159 166/2/158 165/3/157 168/4/160
f 168/1/160 165/2/157 160/3/152 169/4/161
f 26/1/26 52/2/52 170/3/162 144/4/136
f 144/1/136 170/2/162 159/3/151 140/4/132
f 52/1/52 54/2/54 169/3/161 170/4/162
f 170/1/162 169/2/161 160/3/152 159/4/151
f 161/1/153 164/2/156 171/3/163 172/4/164
f 172/1/164 171/2/163 173/3/165 174/4/166
f 164/1/156 166/2/158 175/3/167 171/4/163
f 171/1/163 175/2/167 176/3/168 173/4/165
f 177/1/169 178/2/170 179/3/171 180/4/172
f 180/1/172 179/2/171 181/3/173 182/4/174
f 178/1/170 174/2/166 173/3/165 179/4/171
f 179/1/171 173/2/165 176/3/168 181/4/173
f 77/1/77 183/2/175 184/3/176 78/4/78
f 78/1/78 184/2/176 185/3/177 74/4/74
f 183/1/175 182/2/174 181/3/173 184/4/176
f 184/1/176 181/2/173 176/3/168 185/4/177
f 57/1/57 72/2/72 186/3/178 167/4/159
f 167/1/159 186/2/178 175/3/167 166/4/158
f 72/1/72 74/2/74 185/3/177 186/4/178
f 186/1/178 185/2/177 176/3/168 175/4/167
f 177/1/169 180/2/172 187/3/179 188/4/180
f 188/1/180 187/2/179 189/3/181 190/4/182
f 180/1/172 182/2/174 191/3/183 187/4/179
f 187/1/179 191/2/183 192/3/184 189/4/181
f 193/1/185 194/2/186 195/3/187 196/4/188
f 196/1/188 195/2/187 197/3/189 198/4/190
f 194/1/186 190/2/182 189/3/181 195/4/187
f 195/1/187 189/2/181 192/3/184 197/4/189
f 97/1/97 199/2/191 200/3/192 98/4/98
f 98/1/98 200/2/192 201/3/193 94/4/94
f 199/1/191 198/2/190 197/3/189 200/4/192
f 200/1/192 197/2/189 192/3/184 201/4/193
f 77/1/77 92/2/92 202/3/194 183/4/175
f 183/1/175 202/2/194 191/3/183 182/4/174
f 92/1/92 94/2/94 201/3/193 202/4/194
f 202/1/194 201/2/193 192/3/184 191/4/183
f 10/1/10 13/2/13 203/3/195 132/4/126
f 132/1/126 203/2/195 204/3/196 131/4/125
f 13/1/13 15/2/15 205/3/197 203/4/195
f 203/1/195 205/2/197 206/3/198 204/4/196
f 126/1/121 129/2/123 207/3/199 208/4/200
f 208/1/200 207/2/199 209/3/201 210/4/202
f 129/1/123 131/2/125 204/3/196 207/4/199
f 207/1/199 204/2/196 206/3/198 209/4/201
f 211/1/203 212/2/204 213/3/205 214/4/206
f 214/1/206 213/2/205 215/3/207 216/4/208
f 212/1/204 210/2/202 209/3/201 213/4/205
f 213/1/205 209/2/201 206/3/198 215/4/207
f 16/1/16 217/2/209 218/3/210 17/4/17
f 17/1/17 218/2/210 205/3/197 15/4/15
f 217/1/209 216/2/208 215/3/207 218/4/210
f 218/1/210 215/2/207 206/3/198 205/4/197
f 219/1/211 220/2/212 221/3/213 222/4/214
f 222/1/214 221/2/213 223/3/215 224/4/216
f 220/1/212 225/2/1 226/3/217 221/4/213
f 221/1/213 226/2/217 227/3/218 223/4/215
f 111/1/111 228/2/219 229/3/220 112/4/10
f 112/1/10 229/2/220 230/3/221 117/4/10
f 228/1/219 224/2/216 223/3/215 229/4/220
f 229/1/220 223/2/215 227/3/218 230/4/221
f 10/1/10 134/2/10 231/3/11 11/4/11
f 11/1/11 231/2/11 232/3/222 6/4/6
f 134/1/10 117/2/10 230/3/221 231/4/11
f 231/1/11 230/2/221 227/3/218 232/4/222
f 1/1/1 4/2/4 233/3/1 234/4/1
f 234/1/1 233/2/1 226/3/217 225/4/1
f 4/1/4 6/2/6 232/3/222 233/4/1
f 233/1/1 232/2/222 227/3/218 226/4/217
f 22/1/22 235/2/223 236/3/224 23/4/23
f 23/1/23 236/2/224 237/3/225 21/4/21
f 235/1/223 238/2/226 239/3/227 236/4/224
f 236/1/224 239/2/227 240/3/228 237/4/225
f 16/1/16 19/2/19 241/3/229 242/4/230
f 242/1/230 241/2/229 243/3/231 244/4/232
f 19/1/19 21/2/21 237/3/225 241/4/229
f 241/1/229 237/2/225 240/3/228 243/4/231
f 47/1/47 245/2/233 246/3/234 48/4/48
f 48/1/48 246/2/234 247/3/235 46/4/46
f 245/1/233 244/2/232 243/3/231 246/4/234
f 246/1/234 243/2/231 240/3/228 247/4/235
f 41/1/41 44/2/44 248/3/236 249/4/237
f 249/1/237 248/2/236 239/3/227 238/4/226
f 44/1/44 46/2/46 247/3/235 248/4/236
f 248/1/236 247/2/235 240/3/228 239/4/227
f 16/1/16 242/2/230 250/3/238 217/4/209
f 217/1/209 250/2/238 251/3/239 216/4/208
f 242/1/230 244/2/232 252/3/240 250/4/238
f 250/1/238 252/2/240 253/3/241 251/4/239
f 211/1/203 214/2/206 254/3/242 255/4/243
f 255/1/243 254/2/242 256/3/244 257/4/245
f 214/1/206 216/2/208 251/3/239 254/4/242
f 254/1/242 251/2/239 253/3/241 256/4/244
f 151/1/143 258/2/246 259/3/247 152/4/144
f 152/1/144 259/2/247 260/3/248 150/4/142
f 258/1/246 257/2/245 256/3/244 259/4/247
f 259/1/247 256/2/244 253/3/241 260/4/248
f 47/1/47 148/2/140 261/3/249 245/4/233
f 245/1/233 261/2/249 252/3/240 244/4/232
f 148/1/140 150/2/142 260/3/248 261/4/249
f 261/1/249 260/2/248 253/3/241 252/4/240
